<svg width="124" height="29" viewBox="0 0 124 29" fill="none" xmlns="http://www.w3.org/2000/svg">
<path d="M5.4517 0.363636L13.1435 22.8722H13.4538L21.1456 0.363636H25.6527L15.7074 28H10.8899L0.944602 0.363636H5.4517ZM38.5904 28H29.6436V0.363636H38.8738C41.5816 0.363636 43.9071 0.916903 45.8503 2.02344C47.7935 3.12097 49.2824 4.69981 50.3169 6.75994C51.3605 8.81108 51.8823 11.2715 51.8823 14.1413C51.8823 17.0201 51.356 19.4941 50.3034 21.5632C49.2599 23.6323 47.7485 25.2247 45.7694 26.3402C43.7902 27.4467 41.3972 28 38.5904 28ZM33.8134 24.3565H38.361C40.4661 24.3565 42.2159 23.9607 43.6103 23.169C45.0047 22.3684 46.0482 21.2124 46.7409 19.701C47.4337 18.1806 47.78 16.3274 47.78 14.1413C47.78 11.9732 47.4337 10.1335 46.7409 8.62216C46.0572 7.11079 45.0362 5.96378 43.6777 5.18111C42.3193 4.39844 40.6325 4.0071 38.6174 4.0071H33.8134V24.3565ZM66.0142 28H57.0675V0.363636H66.2976C69.0054 0.363636 71.331 0.916903 73.2741 2.02344C75.2173 3.12097 76.7062 4.69981 77.7408 6.75994C78.7843 8.81108 79.3061 11.2715 79.3061 14.1413C79.3061 17.0201 78.7798 19.4941 77.7273 21.5632C76.6837 23.6323 75.1723 25.2247 73.1932 26.3402C71.214 27.4467 68.821 28 66.0142 28ZM61.2372 24.3565H65.7848C67.8899 24.3565 69.6397 23.9607 71.0341 23.169C72.4285 22.3684 73.4721 21.2124 74.1648 19.701C74.8575 18.1806 75.2038 16.3274 75.2038 14.1413C75.2038 11.9732 74.8575 10.1335 74.1648 8.62216C73.4811 7.11079 72.46 5.96378 71.1016 5.18111C69.7431 4.39844 68.0563 4.0071 66.0412 4.0071H61.2372V24.3565ZM93.1007 28.4183C91.0585 28.4183 89.2998 27.982 87.8244 27.1094C86.358 26.2277 85.2245 24.9908 84.4238 23.3984C83.6322 21.7971 83.2363 19.9214 83.2363 17.7713C83.2363 15.6482 83.6322 13.777 84.4238 12.1577C85.2245 10.5384 86.34 9.27438 87.7704 8.36577C89.2098 7.45715 90.8921 7.00284 92.8173 7.00284C93.9868 7.00284 95.1203 7.19626 96.2179 7.5831C97.3154 7.96993 98.3005 8.57718 99.1731 9.40483C100.046 10.2325 100.734 11.3075 101.238 12.63C101.742 13.9434 101.993 15.5402 101.993 17.4205V18.8509H85.5169V15.8281H98.0396C98.0396 14.7666 97.8237 13.8265 97.3919 13.0078C96.96 12.1802 96.3528 11.5279 95.5701 11.0511C94.7965 10.5743 93.8878 10.3359 92.8443 10.3359C91.7108 10.3359 90.7212 10.6148 89.8755 11.1726C89.0389 11.7214 88.3912 12.4411 87.9324 13.3317C87.4825 14.2133 87.2576 15.1714 87.2576 16.206V18.5675C87.2576 19.9529 87.5005 21.1314 87.9863 22.103C88.4811 23.0746 89.1693 23.8168 90.051 24.3295C90.9326 24.8333 91.9627 25.0852 93.1412 25.0852C93.9058 25.0852 94.603 24.9773 95.2328 24.7614C95.8625 24.5365 96.4068 24.2036 96.8656 23.7628C97.3244 23.322 97.6752 22.7777 97.9181 22.13L101.737 22.8182C101.431 23.9427 100.882 24.9278 100.091 25.7734C99.3081 26.6101 98.323 27.2623 97.1355 27.7301C95.957 28.1889 94.612 28.4183 93.1007 28.4183ZM123.608 7.27273L116.092 28H111.773L104.244 7.27273H108.575L113.825 23.223H114.04L119.276 7.27273H123.608Z" fill="#FFFDFD"/>
</svg>
